<?xml version="1.0" encoding="UTF-8" standalone="no"?><svg xmlns="http://www.w3.org/2000/svg" xmlns:xlink="http://www.w3.org/1999/xlink" contentStyleType="text/css" height="419px" preserveAspectRatio="none" style="width:290px;height:419px;background:#FFFFFF;" version="1.1" viewBox="0 0 290 419" width="290px" zoomAndPan="magnify"><defs/><g><rect fill="#DDDDDD" height="91.4844" id="_legend" rx="7.5" ry="7.5" style="stroke:#000000;stroke-width:1.0;" width="256" x="12" y="12"/><text fill="#000000" font-family="sans-serif" font-size="14" lengthAdjust="spacing" textLength="13" x="17" y="29.9951">1.</text><text fill="#000000" font-family="sans-serif" font-size="14" lengthAdjust="spacing" textLength="200" x="34" y="29.9951">ER図 PlantUML独自記述ルール</text><text fill="#000000" font-family="sans-serif" font-size="14" lengthAdjust="spacing" textLength="246" x="17" y="46.292">リポジトリルートのREADME.md 参照</text><text fill="#000000" font-family="sans-serif" font-size="14" lengthAdjust="spacing" textLength="4" x="17" y="62.5889"> </text><text fill="#000000" font-family="sans-serif" font-size="14" lengthAdjust="spacing" textLength="13" x="17" y="78.8857">2.</text><text fill="#000000" font-family="sans-serif" font-size="14" lengthAdjust="spacing" textLength="65" x="34" y="78.8857">ER図 概要</text><text fill="#000000" font-family="sans-serif" font-size="14" lengthAdjust="spacing" textLength="56" x="17" y="95.1826">自動生成</text><!--class i_user--><g id="elem_i_user"><rect codeLine="4" fill="#FFDAB9" height="105.1563" id="i_user" rx="2.5" ry="2.5" style="stroke:#000000;stroke-width:0.5;" width="221" x="34.5" y="126.4844"/><ellipse cx="71.55" cy="146.6172" fill="#FFE0E0" rx="11" ry="11" style="stroke:#181818;stroke-width:1.0;"/><path d="M67.4719,142.3828 L67.4719,140.2266 L74.8625,140.2266 L74.8625,142.3828 L72.3938,142.3828 L72.3938,150.4609 L74.8625,150.4609 L74.8625,152.6172 L67.4719,152.6172 L67.4719,150.4609 L69.9406,150.4609 L69.9406,142.3828 L67.4719,142.3828 Z " fill="#000000"/><text fill="#000000" font-family="sans-serif" font-size="12" font-style="italic" lengthAdjust="spacing" textLength="62" x="88.45" y="142.623">«ユーザー»</text><text fill="#000000" font-family="sans-serif" font-size="14" lengthAdjust="spacing" textLength="42" x="98.45" y="158.4482">i_user</text><rect fill="#FFFFFF" height="15.9688" style="stroke:#000000;stroke-width:1.0;stroke-dasharray:2.0,2.0;" width="80" x="178.5" y="123.4844"/><text fill="#000000" font-family="sans-serif" font-size="12" font-style="italic" lengthAdjust="spacing" textLength="78" x="179.5" y="135.623">user グループ</text><line style="stroke:#000000;stroke-width:0.5;" x1="35.5" x2="254.5" y1="166.75" y2="166.75"/><ellipse cx="45.5" cy="180.3984" fill="none" rx="3" ry="3" style="stroke:#038048;stroke-width:1.0;"/><text fill="#000000" font-family="sans-serif" font-size="14" lengthAdjust="spacing" textLength="193" x="54.5" y="183.7451">string user_id : -- ユーザーID</text><line style="stroke:#000000;stroke-width:1.0;" x1="35.5" x2="254.5" y1="191.0469" y2="191.0469"/><text fill="#000000" font-family="sans-serif" font-size="14" lengthAdjust="spacing" textLength="209" x="40.5" y="208.042">string email : -- メールアドレス</text><text fill="#000000" font-family="sans-serif" font-size="14" lengthAdjust="spacing" textLength="140" x="40.5" y="224.3389">string name : -- 名前</text></g><!--class i_user_profile--><g id="elem_i_user_profile"><rect codeLine="11" fill="#FFDAB9" height="121.4531" id="i_user_profile" rx="2.5" ry="2.5" style="stroke:#000000;stroke-width:0.5;" width="268" x="11" y="291.4844"/><ellipse cx="26" cy="311.6172" fill="#FFE0E0" rx="11" ry="11" style="stroke:#181818;stroke-width:1.0;"/><path d="M21.9219,307.3828 L21.9219,305.2266 L29.3125,305.2266 L29.3125,307.3828 L26.8438,307.3828 L26.8438,315.4609 L29.3125,315.4609 L29.3125,317.6172 L21.9219,317.6172 L21.9219,315.4609 L24.3906,315.4609 L24.3906,307.3828 L21.9219,307.3828 Z " fill="#000000"/><text fill="#000000" font-family="sans-serif" font-size="12" font-style="italic" lengthAdjust="spacing" textLength="158" x="38" y="307.623">«ユーザープロフィール情報»</text><text fill="#000000" font-family="sans-serif" font-size="14" lengthAdjust="spacing" textLength="95" x="69.5" y="323.4482">i_user_profile</text><rect fill="#FFFFFF" height="15.9688" style="stroke:#000000;stroke-width:1.0;stroke-dasharray:2.0,2.0;" width="80" x="202" y="288.4844"/><text fill="#000000" font-family="sans-serif" font-size="12" font-style="italic" lengthAdjust="spacing" textLength="78" x="203" y="300.623">user グループ</text><line style="stroke:#000000;stroke-width:0.5;" x1="12" x2="278" y1="331.75" y2="331.75"/><ellipse cx="22" cy="345.3984" fill="none" rx="3" ry="3" style="stroke:#038048;stroke-width:1.0;"/><text fill="#000000" font-family="sans-serif" font-size="14" lengthAdjust="spacing" textLength="236" x="31" y="348.7451">string profile_id : -- プロフィールID</text><line style="stroke:#000000;stroke-width:1.0;" x1="12" x2="278" y1="356.0469" y2="356.0469"/><text fill="#000000" font-family="sans-serif" font-size="14" lengthAdjust="spacing" textLength="149" x="17" y="373.042">string bio : -- 自己紹介</text><text fill="#000000" font-family="sans-serif" font-size="14" lengthAdjust="spacing" textLength="193" x="17" y="389.3389">string user_id : -- ユーザーID</text><text fill="#000000" font-family="sans-serif" font-size="14" lengthAdjust="spacing" textLength="237" x="17" y="405.6357">string website : -- ウェブサイトURL</text></g><!--link i_user to i_user_profile--><g id="link_i_user_i_user_profile"><path codeLine="19" d="M145,238.9817 C145,253.5233 145,269.171 145,284.0497 " fill="none" id="i_user-i_user_profile" style="stroke:#000000;stroke-width:1.0;"/><line style="stroke:#000000;stroke-width:1.0;" x1="141" x2="149" y1="235.8301" y2="235.8301"/><line style="stroke:#000000;stroke-width:1.0;" x1="141" x2="149" y1="238.8301" y2="238.8301"/><line style="stroke:#000000;stroke-width:1.0;" x1="145" x2="145" y1="239.8301" y2="231.8301"/><line style="stroke:#000000;stroke-width:1.0;" x1="149" x2="141" y1="287.2837" y2="287.2837"/><line style="stroke:#000000;stroke-width:1.0;" x1="149" x2="141" y1="284.2837" y2="284.2837"/><line style="stroke:#000000;stroke-width:1.0;" x1="145" x2="145" y1="283.2837" y2="291.2837"/><text fill="#000000" font-family="sans-serif" font-size="13" lengthAdjust="spacing" textLength="47" x="94.9891" y="251.6273">user_id</text><text fill="#000000" font-family="sans-serif" font-size="13" lengthAdjust="spacing" textLength="47" x="95.2828" y="280.4463">user_id</text></g></g></svg>